<mxfile host="Electron" modified="2023-06-14T14:02:01.240Z" agent="Mozilla/5.0 (X11; Linux x86_64) AppleWebKit/537.36 (KHTML, like Gecko) draw.io/21.3.7 Chrome/112.0.5615.204 Electron/24.5.0 Safari/537.36" etag="5pHvHyItu2ZulDv3GO1F" version="21.3.7" type="device">
  <diagram name="Page-1" id="oCVcbYmt8xG_9kILmg9v">
    <mxGraphModel dx="1434" dy="843" grid="1" gridSize="10" guides="1" tooltips="1" connect="1" arrows="1" fold="1" page="1" pageScale="1" pageWidth="850" pageHeight="1100" math="0" shadow="0">
      <root>
        <mxCell id="0" />
        <mxCell id="1" parent="0" />
        <mxCell id="cKJPi1_qTSsBnUUTFW2l-3" value="" style="edgeStyle=orthogonalEdgeStyle;rounded=0;orthogonalLoop=1;jettySize=auto;html=1;" edge="1" parent="1" source="cKJPi1_qTSsBnUUTFW2l-1" target="cKJPi1_qTSsBnUUTFW2l-2">
          <mxGeometry relative="1" as="geometry" />
        </mxCell>
        <mxCell id="cKJPi1_qTSsBnUUTFW2l-7" value="" style="edgeStyle=orthogonalEdgeStyle;rounded=0;orthogonalLoop=1;jettySize=auto;html=1;" edge="1" parent="1" source="cKJPi1_qTSsBnUUTFW2l-1" target="cKJPi1_qTSsBnUUTFW2l-6">
          <mxGeometry relative="1" as="geometry" />
        </mxCell>
        <mxCell id="cKJPi1_qTSsBnUUTFW2l-9" value="" style="edgeStyle=orthogonalEdgeStyle;rounded=0;orthogonalLoop=1;jettySize=auto;html=1;" edge="1" parent="1" source="cKJPi1_qTSsBnUUTFW2l-1" target="cKJPi1_qTSsBnUUTFW2l-8">
          <mxGeometry relative="1" as="geometry" />
        </mxCell>
        <mxCell id="cKJPi1_qTSsBnUUTFW2l-11" value="" style="edgeStyle=orthogonalEdgeStyle;rounded=0;orthogonalLoop=1;jettySize=auto;html=1;" edge="1" parent="1" source="cKJPi1_qTSsBnUUTFW2l-1" target="cKJPi1_qTSsBnUUTFW2l-10">
          <mxGeometry relative="1" as="geometry" />
        </mxCell>
        <mxCell id="cKJPi1_qTSsBnUUTFW2l-1" value="Приложение" style="rounded=1;whiteSpace=wrap;html=1;" vertex="1" parent="1">
          <mxGeometry x="310" y="90" width="120" height="60" as="geometry" />
        </mxCell>
        <mxCell id="cKJPi1_qTSsBnUUTFW2l-2" value="База данных" style="rounded=1;whiteSpace=wrap;html=1;" vertex="1" parent="1">
          <mxGeometry x="100" y="230" width="120" height="60" as="geometry" />
        </mxCell>
        <mxCell id="cKJPi1_qTSsBnUUTFW2l-6" value="Логгирование" style="rounded=1;whiteSpace=wrap;html=1;" vertex="1" parent="1">
          <mxGeometry x="510" y="230" width="120" height="60" as="geometry" />
        </mxCell>
        <mxCell id="cKJPi1_qTSsBnUUTFW2l-8" value="Сбор метрик" style="rounded=1;whiteSpace=wrap;html=1;" vertex="1" parent="1">
          <mxGeometry x="650" y="230" width="120" height="60" as="geometry" />
        </mxCell>
        <mxCell id="cKJPi1_qTSsBnUUTFW2l-10" value="веб интерфейс" style="rounded=1;whiteSpace=wrap;html=1;" vertex="1" parent="1">
          <mxGeometry x="310" y="550" width="120" height="60" as="geometry" />
        </mxCell>
      </root>
    </mxGraphModel>
  </diagram>
</mxfile>
